<svg version="1" xmlns="http://www.w3.org/2000/svg" width="682.667" height="682.667" viewBox="0 0 512.000000 512.000000"><path d="M225 1.5C116 15 26.9 97 4.9 204.2 0 228.3-1.4 262 1.4 286 15.6 403.9 108.1 496.4 226 510.6c14.8 1.7 45.2 1.7 60 0 101.6-12.3 185.9-83 215.4-180.8 12-39.6 14-85 5.7-125.6C485 96.6 395.6 14.6 286 1.4c-14.2-1.7-46.9-1.6-61 .1zm148 102.6c5.5 2.5 10.5 7.1 13.3 12.4 1.7 3.1 2.2 5.8 2.2 11.5s-.5 8.4-2.2 11.5c-9.8 18.4-35.6 19.5-45.9 2-1.4-2.5-2.8-6.3-3.1-8.5-.3-2.2-.6-4-.7-4 0 0-12.7-2.7-28-6-15.4-3.3-28.1-5.8-28.2-5.7-.1.1-3.9 17.5-8.4 38.7-4.5 21.2-8.3 39.2-8.6 40-.3 1.3 1.7 1.8 12.4 2.8 30 2.9 59.9 12.7 81 26.4 5.3 3.4 6.7 4 8 3 1-.7 4-2.5 6.7-4.2 17.7-10.5 41.4-3.2 50.7 15.8 3 6.1 3.3 7.4 3.3 16.2 0 7.8-.4 10.4-2.3 14.4-3.1 6.7-8.3 12.9-14.1 16.7l-5 3.1.6 6.9c1.2 13.8-3.7 31.7-12.4 45.8-5.9 9.5-21.3 25.2-31.3 31.8-16.7 11.1-32.7 18.2-52.2 23.3-20.1 5.2-29.3 6.3-52.8 6.4-23.5 0-32.4-1.1-52.8-6.4-48.3-12.6-84.1-42.4-93.8-78.1-1.1-4.1-1.8-10.6-1.9-18.2l-.2-11.8-5-3.4c-16.9-11.4-21.4-34.5-10-51.1 7.4-10.8 20.8-17.2 33.4-16.1 6.8.7 17.1 4.7 19.9 7.8 2.3 2.6 2.9 2.5 9.8-2 23.2-15.1 55.4-24.7 91.5-27.3l3.5-.3 9.1-43c11.1-52.1 10-48.1 12.9-50 2.1-1.4 4.7-1 34.5 5.3l32.2 6.9 2-3.4c6.1-9.9 20.9-14.2 31.9-9.2z"/><path d="M188.5 257.3c-8.7 3.4-14.4 9.4-17.1 18.4-5.9 19.1 13.8 38.8 32.9 32.9 11.6-3.5 18.6-12.1 19.5-23.7.8-11.8-4.8-21.7-15.3-26.5-5.6-2.6-14.7-3.1-20-1.1zM303.5 258.3c-6.1 2.9-11.6 8.8-14 15-2.7 7.2-1.7 17.1 2.4 23.5 11.4 17.8 37.1 16.8 46.6-1.9 6.5-12.6 2.4-27.3-9.7-35-4.3-2.8-6.1-3.3-12.7-3.6-6.5-.3-8.3 0-12.6 2zM193.2 342.7c-1.2 1-2.4 3.1-2.8 4.6-.6 2.5 0 3.4 4.4 7.7 23.7 22.8 90.8 24.2 119.9 2.4 7.7-5.8 9.1-9.7 4.8-13.9-3.2-3.3-6.4-3.1-11.1.6-5.2 4.2-14.2 8.4-23.9 11.1-7.1 1.9-10.4 2.2-28.5 2.2-18 0-21.5-.3-28.4-2.2-10-2.8-17.3-6.1-23.2-10.6-5.2-4-8.2-4.5-11.2-1.9z"/></svg>